<svg width="24" height="24" viewBox="0 0 24 24" fill="none" xmlns="http://www.w3.org/2000/svg">
<path fill-rule="evenodd" clip-rule="evenodd" d="M3.82978 0.000106005L20.2979 0C20.8805 0 21.4627 0.0855686 22.0711 0.369223C22.8005 0.709189 23.1872 1.24504 23.4582 1.64132C23.4793 1.67215 23.499 1.70392 23.5172 1.73643C23.8358 2.30353 24 2.91582 24 3.57447C24 4.20029 23.8511 4.88211 23.5172 5.47637C23.5141 5.48213 23.5108 5.48769 23.5076 5.49335L13.1033 23.3657C12.8738 23.7599 12.4515 24.0016 11.9955 24C11.5394 23.9984 11.1188 23.7536 10.8922 23.3578L0.67896 5.52366C0.676024 5.51883 0.673088 5.51401 0.670152 5.50908C0.436412 5.12392 0.0749491 4.5283 0.0117167 3.75965C-0.0463775 3.05277 0.112489 2.34453 0.467661 1.73045C0.822832 1.11627 1.35753 0.625298 2.00066 0.324761C2.69024 0.00251672 3.38904 0.000106005 3.82978 0.000106005ZM10.7234 2.55321H3.82978C3.37688 2.55321 3.20302 2.5811 3.08148 2.63793C2.91338 2.71637 2.77224 2.84546 2.67786 3.00862C2.58349 3.1719 2.54081 3.36107 2.55633 3.55045C2.56524 3.65899 2.60949 3.78314 2.8705 4.2136C2.87595 4.22262 2.8813 4.23175 2.88654 4.24087L10.7234 17.9254V2.55321ZM13.2766 2.55321V17.993L21.295 4.21916C21.3854 4.05474 21.4468 3.81712 21.4468 3.57447C21.4468 3.37764 21.406 3.20671 21.3148 3.03054C21.219 2.89286 21.1607 2.81998 21.112 2.77006C21.0701 2.72738 21.0379 2.70452 20.9924 2.68334C20.8028 2.59494 20.6088 2.55321 20.2979 2.55321H13.2766Z" fill="#0088CC"/>
</svg>
